<mxfile host="Electron" modified="2024-05-05T07:48:36.262Z" agent="Mozilla/5.0 (Windows NT 10.0; Win64; x64) AppleWebKit/537.36 (KHTML, like Gecko) draw.io/24.2.5 Chrome/120.0.6099.109 Electron/28.1.0 Safari/537.36" etag="C4PFcHEFr4V5PAiCbOWC" version="24.2.5" type="device">
  <diagram id="R2lEEEUBdFMjLlhIrx00" name="Page-1">
    <mxGraphModel dx="1433" dy="1799" grid="1" gridSize="10" guides="1" tooltips="1" connect="1" arrows="1" fold="1" page="1" pageScale="1" pageWidth="850" pageHeight="1100" math="0" shadow="0" extFonts="Permanent Marker^https://fonts.googleapis.com/css?family=Permanent+Marker">
      <root>
        <mxCell id="0" />
        <mxCell id="1" parent="0" />
        <mxCell id="HMs-BGDvahII_dK5F-9A-12" style="edgeStyle=orthogonalEdgeStyle;rounded=0;orthogonalLoop=1;jettySize=auto;html=1;exitX=0.5;exitY=1;exitDx=0;exitDy=0;" parent="1" edge="1">
          <mxGeometry relative="1" as="geometry">
            <mxPoint x="1140" y="440" as="sourcePoint" />
            <mxPoint x="1140" y="440" as="targetPoint" />
          </mxGeometry>
        </mxCell>
        <mxCell id="HMs-BGDvahII_dK5F-9A-22" value="manage" style="shape=rhombus;perimeter=rhombusPerimeter;whiteSpace=wrap;html=1;align=center;" parent="1" vertex="1">
          <mxGeometry x="540" y="-150" width="100" height="60" as="geometry" />
        </mxCell>
        <mxCell id="HMs-BGDvahII_dK5F-9A-24" value="" style="endArrow=none;html=1;rounded=0;entryX=-0.033;entryY=0.051;entryDx=0;entryDy=0;exitX=1;exitY=0.5;exitDx=0;exitDy=0;entryPerimeter=0;" parent="1" source="HMs-BGDvahII_dK5F-9A-22" target="-N78YMiF-IeMwTMvXvKY-41" edge="1">
          <mxGeometry relative="1" as="geometry">
            <mxPoint x="340" y="240" as="sourcePoint" />
            <mxPoint x="730" y="160" as="targetPoint" />
          </mxGeometry>
        </mxCell>
        <mxCell id="HMs-BGDvahII_dK5F-9A-25" value="1" style="resizable=0;html=1;whiteSpace=wrap;align=right;verticalAlign=bottom;" parent="HMs-BGDvahII_dK5F-9A-24" connectable="0" vertex="1">
          <mxGeometry x="1" relative="1" as="geometry" />
        </mxCell>
        <mxCell id="HMs-BGDvahII_dK5F-9A-26" value="" style="endArrow=none;html=1;rounded=0;entryX=1.022;entryY=0.305;entryDx=0;entryDy=0;entryPerimeter=0;exitX=0;exitY=0.5;exitDx=0;exitDy=0;" parent="1" source="HMs-BGDvahII_dK5F-9A-22" target="-N78YMiF-IeMwTMvXvKY-9" edge="1">
          <mxGeometry relative="1" as="geometry">
            <mxPoint x="542" y="-37" as="sourcePoint" />
            <mxPoint x="515" y="-25" as="targetPoint" />
          </mxGeometry>
        </mxCell>
        <mxCell id="HMs-BGDvahII_dK5F-9A-27" value="m" style="resizable=0;html=1;whiteSpace=wrap;align=right;verticalAlign=bottom;" parent="HMs-BGDvahII_dK5F-9A-26" connectable="0" vertex="1">
          <mxGeometry x="1" relative="1" as="geometry">
            <mxPoint x="10" as="offset" />
          </mxGeometry>
        </mxCell>
        <mxCell id="HMs-BGDvahII_dK5F-9A-29" value="" style="endArrow=none;html=1;rounded=0;exitX=0;exitY=0.5;exitDx=0;exitDy=0;entryX=0.996;entryY=0.748;entryDx=0;entryDy=0;entryPerimeter=0;" parent="1" source="HMs-BGDvahII_dK5F-9A-31" target="-N78YMiF-IeMwTMvXvKY-40" edge="1">
          <mxGeometry relative="1" as="geometry">
            <mxPoint x="310" y="270" as="sourcePoint" />
            <mxPoint x="270" y="50" as="targetPoint" />
          </mxGeometry>
        </mxCell>
        <mxCell id="HMs-BGDvahII_dK5F-9A-30" value="1" style="resizable=0;html=1;whiteSpace=wrap;align=right;verticalAlign=bottom;" parent="HMs-BGDvahII_dK5F-9A-29" connectable="0" vertex="1">
          <mxGeometry x="1" relative="1" as="geometry">
            <mxPoint x="20" y="20" as="offset" />
          </mxGeometry>
        </mxCell>
        <mxCell id="HMs-BGDvahII_dK5F-9A-31" value="treat" style="shape=rhombus;perimeter=rhombusPerimeter;whiteSpace=wrap;html=1;align=center;" parent="1" vertex="1">
          <mxGeometry x="340" y="175" width="100" height="60" as="geometry" />
        </mxCell>
        <mxCell id="HMs-BGDvahII_dK5F-9A-32" value="" style="endArrow=none;html=1;rounded=0;entryX=-0.023;entryY=0.661;entryDx=0;entryDy=0;exitX=1;exitY=0.5;exitDx=0;exitDy=0;entryPerimeter=0;" parent="1" source="HMs-BGDvahII_dK5F-9A-31" target="-N78YMiF-IeMwTMvXvKY-50" edge="1">
          <mxGeometry relative="1" as="geometry">
            <mxPoint x="490" y="220" as="sourcePoint" />
            <mxPoint x="510" y="290" as="targetPoint" />
          </mxGeometry>
        </mxCell>
        <mxCell id="HMs-BGDvahII_dK5F-9A-33" value="m" style="resizable=0;html=1;whiteSpace=wrap;align=right;verticalAlign=bottom;" parent="HMs-BGDvahII_dK5F-9A-32" connectable="0" vertex="1">
          <mxGeometry x="1" relative="1" as="geometry">
            <mxPoint x="10" as="offset" />
          </mxGeometry>
        </mxCell>
        <mxCell id="HMs-BGDvahII_dK5F-9A-34" value="sold" style="shape=rhombus;perimeter=rhombusPerimeter;whiteSpace=wrap;html=1;align=center;" parent="1" vertex="1">
          <mxGeometry x="220" y="280" width="100" height="60" as="geometry" />
        </mxCell>
        <mxCell id="HMs-BGDvahII_dK5F-9A-36" value="bought" style="shape=rhombus;perimeter=rhombusPerimeter;whiteSpace=wrap;html=1;align=center;" parent="1" vertex="1">
          <mxGeometry x="470" y="330" width="100" height="60" as="geometry" />
        </mxCell>
        <mxCell id="HMs-BGDvahII_dK5F-9A-37" value="" style="endArrow=none;html=1;rounded=0;exitX=0.5;exitY=0;exitDx=0;exitDy=0;entryX=0.548;entryY=1.004;entryDx=0;entryDy=0;entryPerimeter=0;" parent="1" source="HMs-BGDvahII_dK5F-9A-36" target="-N78YMiF-IeMwTMvXvKY-50" edge="1">
          <mxGeometry relative="1" as="geometry">
            <mxPoint x="610" y="416.6" as="sourcePoint" />
            <mxPoint x="560" y="310" as="targetPoint" />
          </mxGeometry>
        </mxCell>
        <mxCell id="HMs-BGDvahII_dK5F-9A-38" value="1" style="resizable=0;html=1;whiteSpace=wrap;align=right;verticalAlign=bottom;" parent="HMs-BGDvahII_dK5F-9A-37" connectable="0" vertex="1">
          <mxGeometry x="1" relative="1" as="geometry">
            <mxPoint x="-9" y="17" as="offset" />
          </mxGeometry>
        </mxCell>
        <mxCell id="HMs-BGDvahII_dK5F-9A-39" value="" style="endArrow=none;html=1;rounded=0;exitX=0;exitY=0;exitDx=0;exitDy=0;entryX=0.691;entryY=1.023;entryDx=0;entryDy=0;entryPerimeter=0;" parent="1" source="HMs-BGDvahII_dK5F-9A-34" target="-N78YMiF-IeMwTMvXvKY-40" edge="1">
          <mxGeometry relative="1" as="geometry">
            <mxPoint x="300" y="350" as="sourcePoint" />
            <mxPoint x="190" y="140" as="targetPoint" />
          </mxGeometry>
        </mxCell>
        <mxCell id="HMs-BGDvahII_dK5F-9A-40" value="1" style="resizable=0;html=1;whiteSpace=wrap;align=right;verticalAlign=bottom;" parent="HMs-BGDvahII_dK5F-9A-39" connectable="0" vertex="1">
          <mxGeometry x="1" relative="1" as="geometry">
            <mxPoint y="30" as="offset" />
          </mxGeometry>
        </mxCell>
        <mxCell id="HMs-BGDvahII_dK5F-9A-41" value="" style="endArrow=none;html=1;rounded=0;entryX=0.25;entryY=0;entryDx=0;entryDy=0;exitX=0.5;exitY=1;exitDx=0;exitDy=0;" parent="1" source="HMs-BGDvahII_dK5F-9A-34" target="-N78YMiF-IeMwTMvXvKY-35" edge="1">
          <mxGeometry relative="1" as="geometry">
            <mxPoint x="450" y="300" as="sourcePoint" />
            <mxPoint x="337.2000000000003" y="495" as="targetPoint" />
          </mxGeometry>
        </mxCell>
        <mxCell id="HMs-BGDvahII_dK5F-9A-42" value="m" style="resizable=0;html=1;whiteSpace=wrap;align=right;verticalAlign=bottom;" parent="HMs-BGDvahII_dK5F-9A-41" connectable="0" vertex="1">
          <mxGeometry x="1" relative="1" as="geometry">
            <mxPoint x="10" as="offset" />
          </mxGeometry>
        </mxCell>
        <mxCell id="HMs-BGDvahII_dK5F-9A-43" value="" style="endArrow=none;html=1;rounded=0;exitX=0.339;exitY=0.857;exitDx=0;exitDy=0;exitPerimeter=0;entryX=0.75;entryY=0;entryDx=0;entryDy=0;" parent="1" source="HMs-BGDvahII_dK5F-9A-36" target="-N78YMiF-IeMwTMvXvKY-35" edge="1">
          <mxGeometry relative="1" as="geometry">
            <mxPoint x="450" y="300" as="sourcePoint" />
            <mxPoint x="440" y="500" as="targetPoint" />
          </mxGeometry>
        </mxCell>
        <mxCell id="HMs-BGDvahII_dK5F-9A-44" value="m" style="resizable=0;html=1;whiteSpace=wrap;align=right;verticalAlign=bottom;" parent="HMs-BGDvahII_dK5F-9A-43" connectable="0" vertex="1">
          <mxGeometry x="1" relative="1" as="geometry">
            <mxPoint x="10" as="offset" />
          </mxGeometry>
        </mxCell>
        <mxCell id="HMs-BGDvahII_dK5F-9A-45" value="use" style="shape=rhombus;perimeter=rhombusPerimeter;whiteSpace=wrap;html=1;align=center;" parent="1" vertex="1">
          <mxGeometry x="40" y="260" width="100" height="60" as="geometry" />
        </mxCell>
        <mxCell id="HMs-BGDvahII_dK5F-9A-47" value="" style="endArrow=none;html=1;rounded=0;entryX=0.062;entryY=1.007;entryDx=0;entryDy=0;entryPerimeter=0;" parent="1" source="HMs-BGDvahII_dK5F-9A-45" target="-N78YMiF-IeMwTMvXvKY-40" edge="1">
          <mxGeometry relative="1" as="geometry">
            <mxPoint x="230" y="470" as="sourcePoint" />
            <mxPoint x="90" y="130" as="targetPoint" />
          </mxGeometry>
        </mxCell>
        <mxCell id="HMs-BGDvahII_dK5F-9A-48" value="m" style="resizable=0;html=1;whiteSpace=wrap;align=right;verticalAlign=bottom;" parent="HMs-BGDvahII_dK5F-9A-47" connectable="0" vertex="1">
          <mxGeometry x="1" relative="1" as="geometry">
            <mxPoint x="20" y="20" as="offset" />
          </mxGeometry>
        </mxCell>
        <mxCell id="HMs-BGDvahII_dK5F-9A-49" value="" style="endArrow=none;html=1;rounded=0;exitX=0.5;exitY=1;exitDx=0;exitDy=0;entryX=0.5;entryY=0;entryDx=0;entryDy=0;" parent="1" source="HMs-BGDvahII_dK5F-9A-45" target="-N78YMiF-IeMwTMvXvKY-6" edge="1">
          <mxGeometry relative="1" as="geometry">
            <mxPoint x="240" y="480" as="sourcePoint" />
            <mxPoint x="60" y="480" as="targetPoint" />
          </mxGeometry>
        </mxCell>
        <mxCell id="HMs-BGDvahII_dK5F-9A-50" value="m" style="resizable=0;html=1;whiteSpace=wrap;align=right;verticalAlign=bottom;" parent="HMs-BGDvahII_dK5F-9A-49" connectable="0" vertex="1">
          <mxGeometry x="1" relative="1" as="geometry">
            <mxPoint x="10" as="offset" />
          </mxGeometry>
        </mxCell>
        <mxCell id="HMs-BGDvahII_dK5F-9A-51" value="do" style="shape=rhombus;perimeter=rhombusPerimeter;whiteSpace=wrap;html=1;align=center;" parent="1" vertex="1">
          <mxGeometry x="700" y="210" width="100" height="60" as="geometry" />
        </mxCell>
        <mxCell id="HMs-BGDvahII_dK5F-9A-52" value="" style="endArrow=none;html=1;rounded=0;entryX=1.036;entryY=0.729;entryDx=0;entryDy=0;entryPerimeter=0;exitX=0;exitY=0.5;exitDx=0;exitDy=0;" parent="1" source="HMs-BGDvahII_dK5F-9A-51" target="-N78YMiF-IeMwTMvXvKY-50" edge="1">
          <mxGeometry relative="1" as="geometry">
            <mxPoint x="680" y="280" as="sourcePoint" />
            <mxPoint x="610" y="290" as="targetPoint" />
          </mxGeometry>
        </mxCell>
        <mxCell id="HMs-BGDvahII_dK5F-9A-53" value="1" style="resizable=0;html=1;whiteSpace=wrap;align=right;verticalAlign=bottom;" parent="HMs-BGDvahII_dK5F-9A-52" connectable="0" vertex="1">
          <mxGeometry x="1" relative="1" as="geometry">
            <mxPoint x="10" y="20" as="offset" />
          </mxGeometry>
        </mxCell>
        <mxCell id="HMs-BGDvahII_dK5F-9A-54" value="" style="endArrow=none;html=1;rounded=0;entryX=-0.029;entryY=0.418;entryDx=0;entryDy=0;exitX=1;exitY=0.5;exitDx=0;exitDy=0;entryPerimeter=0;" parent="1" source="HMs-BGDvahII_dK5F-9A-51" target="-N78YMiF-IeMwTMvXvKY-42" edge="1">
          <mxGeometry relative="1" as="geometry">
            <mxPoint x="544" y="471" as="sourcePoint" />
            <mxPoint x="840" y="290" as="targetPoint" />
          </mxGeometry>
        </mxCell>
        <mxCell id="HMs-BGDvahII_dK5F-9A-55" value="m" style="resizable=0;html=1;whiteSpace=wrap;align=right;verticalAlign=bottom;" parent="HMs-BGDvahII_dK5F-9A-54" connectable="0" vertex="1">
          <mxGeometry x="1" relative="1" as="geometry">
            <mxPoint as="offset" />
          </mxGeometry>
        </mxCell>
        <mxCell id="HMs-BGDvahII_dK5F-9A-57" value="contains" style="shape=rhombus;perimeter=rhombusPerimeter;whiteSpace=wrap;html=1;align=center;" parent="1" vertex="1">
          <mxGeometry x="880" y="380" width="100" height="60" as="geometry" />
        </mxCell>
        <mxCell id="HMs-BGDvahII_dK5F-9A-58" value="" style="endArrow=none;html=1;rounded=0;entryX=0.617;entryY=1.068;entryDx=0;entryDy=0;entryPerimeter=0;" parent="1" source="HMs-BGDvahII_dK5F-9A-57" target="-N78YMiF-IeMwTMvXvKY-42" edge="1">
          <mxGeometry relative="1" as="geometry">
            <mxPoint x="720" y="370" as="sourcePoint" />
            <mxPoint x="885.1999999999998" y="311.7999999999997" as="targetPoint" />
          </mxGeometry>
        </mxCell>
        <mxCell id="HMs-BGDvahII_dK5F-9A-59" value="1" style="resizable=0;html=1;whiteSpace=wrap;align=right;verticalAlign=bottom;" parent="HMs-BGDvahII_dK5F-9A-58" connectable="0" vertex="1">
          <mxGeometry x="1" relative="1" as="geometry">
            <mxPoint x="10" y="20" as="offset" />
          </mxGeometry>
        </mxCell>
        <mxCell id="HMs-BGDvahII_dK5F-9A-60" value="" style="endArrow=none;html=1;rounded=0;exitX=0.5;exitY=1;exitDx=0;exitDy=0;entryX=0.5;entryY=0;entryDx=0;entryDy=0;" parent="1" source="HMs-BGDvahII_dK5F-9A-57" target="-N78YMiF-IeMwTMvXvKY-51" edge="1">
          <mxGeometry relative="1" as="geometry">
            <mxPoint x="790" y="300" as="sourcePoint" />
            <mxPoint x="915.5555555555552" y="530" as="targetPoint" />
          </mxGeometry>
        </mxCell>
        <mxCell id="HMs-BGDvahII_dK5F-9A-61" value="m" style="resizable=0;html=1;whiteSpace=wrap;align=right;verticalAlign=bottom;" parent="HMs-BGDvahII_dK5F-9A-60" connectable="0" vertex="1">
          <mxGeometry x="1" relative="1" as="geometry">
            <mxPoint x="10" as="offset" />
          </mxGeometry>
        </mxCell>
        <mxCell id="HMs-BGDvahII_dK5F-9A-62" value="road" style="shape=rhombus;perimeter=rhombusPerimeter;whiteSpace=wrap;html=1;align=center;" parent="1" vertex="1">
          <mxGeometry x="770" y="860" width="100" height="60" as="geometry" />
        </mxCell>
        <mxCell id="HMs-BGDvahII_dK5F-9A-63" value="road" style="shape=rhombus;perimeter=rhombusPerimeter;whiteSpace=wrap;html=1;align=center;" parent="1" vertex="1">
          <mxGeometry x="510" y="910" width="100" height="60" as="geometry" />
        </mxCell>
        <mxCell id="HMs-BGDvahII_dK5F-9A-64" value="" style="endArrow=none;html=1;rounded=0;entryX=0.5;entryY=0;entryDx=0;entryDy=0;exitX=0.5;exitY=1;exitDx=0;exitDy=0;" parent="1" source="HMs-BGDvahII_dK5F-9A-63" target="-N78YMiF-IeMwTMvXvKY-57" edge="1">
          <mxGeometry relative="1" as="geometry">
            <mxPoint x="570" y="940" as="sourcePoint" />
            <mxPoint x="625" y="994.9300000000002" as="targetPoint" />
          </mxGeometry>
        </mxCell>
        <mxCell id="HMs-BGDvahII_dK5F-9A-65" value="1" style="resizable=0;html=1;whiteSpace=wrap;align=right;verticalAlign=bottom;" parent="HMs-BGDvahII_dK5F-9A-64" connectable="0" vertex="1">
          <mxGeometry x="1" relative="1" as="geometry" />
        </mxCell>
        <mxCell id="HMs-BGDvahII_dK5F-9A-66" value="" style="endArrow=none;html=1;rounded=0;entryX=0.5;entryY=0;entryDx=0;entryDy=0;exitX=0.5;exitY=1;exitDx=0;exitDy=0;" parent="1" source="HMs-BGDvahII_dK5F-9A-62" target="-N78YMiF-IeMwTMvXvKY-55" edge="1">
          <mxGeometry relative="1" as="geometry">
            <mxPoint x="510" y="934.93" as="sourcePoint" />
            <mxPoint x="800" y="995" as="targetPoint" />
          </mxGeometry>
        </mxCell>
        <mxCell id="HMs-BGDvahII_dK5F-9A-67" value="1" style="resizable=0;html=1;whiteSpace=wrap;align=right;verticalAlign=bottom;" parent="HMs-BGDvahII_dK5F-9A-66" connectable="0" vertex="1">
          <mxGeometry x="1" relative="1" as="geometry">
            <mxPoint x="10" as="offset" />
          </mxGeometry>
        </mxCell>
        <mxCell id="HMs-BGDvahII_dK5F-9A-68" value="" style="endArrow=none;html=1;rounded=0;exitX=0;exitY=0;exitDx=0;exitDy=0;entryX=1.023;entryY=0.629;entryDx=0;entryDy=0;entryPerimeter=0;" parent="1" source="HMs-BGDvahII_dK5F-9A-62" target="-N78YMiF-IeMwTMvXvKY-54" edge="1">
          <mxGeometry relative="1" as="geometry">
            <mxPoint x="515" y="915.8" as="sourcePoint" />
            <mxPoint x="800" y="820" as="targetPoint" />
          </mxGeometry>
        </mxCell>
        <mxCell id="HMs-BGDvahII_dK5F-9A-69" value="1" style="resizable=0;html=1;whiteSpace=wrap;align=right;verticalAlign=bottom;" parent="HMs-BGDvahII_dK5F-9A-68" connectable="0" vertex="1">
          <mxGeometry x="1" relative="1" as="geometry">
            <mxPoint x="16" y="9" as="offset" />
          </mxGeometry>
        </mxCell>
        <mxCell id="HMs-BGDvahII_dK5F-9A-70" value="" style="endArrow=none;html=1;rounded=0;exitX=0.5;exitY=0;exitDx=0;exitDy=0;entryX=0.07;entryY=1.091;entryDx=0;entryDy=0;entryPerimeter=0;" parent="1" source="HMs-BGDvahII_dK5F-9A-63" target="-N78YMiF-IeMwTMvXvKY-54" edge="1">
          <mxGeometry relative="1" as="geometry">
            <mxPoint x="505" y="905.8" as="sourcePoint" />
            <mxPoint x="500" y="860" as="targetPoint" />
          </mxGeometry>
        </mxCell>
        <mxCell id="HMs-BGDvahII_dK5F-9A-71" value="1" style="resizable=0;html=1;whiteSpace=wrap;align=right;verticalAlign=bottom;" parent="HMs-BGDvahII_dK5F-9A-70" connectable="0" vertex="1">
          <mxGeometry x="1" relative="1" as="geometry">
            <mxPoint x="10" y="20" as="offset" />
          </mxGeometry>
        </mxCell>
        <mxCell id="HMs-BGDvahII_dK5F-9A-72" value="" style="endArrow=none;html=1;rounded=0;entryX=0.773;entryY=0.998;entryDx=0;entryDy=0;exitX=0;exitY=0;exitDx=0;exitDy=0;entryPerimeter=0;" parent="1" source="HMs-BGDvahII_dK5F-9A-74" target="-N78YMiF-IeMwTMvXvKY-50" edge="1">
          <mxGeometry relative="1" as="geometry">
            <mxPoint x="630" y="350" as="sourcePoint" />
            <mxPoint x="585" y="310" as="targetPoint" />
          </mxGeometry>
        </mxCell>
        <mxCell id="HMs-BGDvahII_dK5F-9A-73" value="1" style="resizable=0;html=1;whiteSpace=wrap;align=right;verticalAlign=bottom;" parent="HMs-BGDvahII_dK5F-9A-72" connectable="0" vertex="1">
          <mxGeometry x="1" relative="1" as="geometry">
            <mxPoint x="10" y="20" as="offset" />
          </mxGeometry>
        </mxCell>
        <mxCell id="HMs-BGDvahII_dK5F-9A-74" value="have" style="shape=rhombus;perimeter=rhombusPerimeter;whiteSpace=wrap;html=1;align=center;" parent="1" vertex="1">
          <mxGeometry x="630" y="310" width="100" height="60" as="geometry" />
        </mxCell>
        <mxCell id="HMs-BGDvahII_dK5F-9A-76" value="" style="endArrow=none;html=1;rounded=0;entryX=0.329;entryY=-0.021;entryDx=0;entryDy=0;exitX=0.5;exitY=1;exitDx=0;exitDy=0;entryPerimeter=0;" parent="1" source="HMs-BGDvahII_dK5F-9A-74" target="-N78YMiF-IeMwTMvXvKY-15" edge="1">
          <mxGeometry relative="1" as="geometry">
            <mxPoint x="790" y="410" as="sourcePoint" />
            <mxPoint x="660.0000000000005" y="480" as="targetPoint" />
          </mxGeometry>
        </mxCell>
        <mxCell id="HMs-BGDvahII_dK5F-9A-77" value="1" style="resizable=0;html=1;whiteSpace=wrap;align=right;verticalAlign=bottom;" parent="HMs-BGDvahII_dK5F-9A-76" connectable="0" vertex="1">
          <mxGeometry x="1" relative="1" as="geometry">
            <mxPoint x="10" as="offset" />
          </mxGeometry>
        </mxCell>
        <mxCell id="HMs-BGDvahII_dK5F-9A-80" value="contains" style="shape=rhombus;perimeter=rhombusPerimeter;whiteSpace=wrap;html=1;align=center;" parent="1" vertex="1">
          <mxGeometry x="730" y="350" width="100" height="60" as="geometry" />
        </mxCell>
        <mxCell id="HMs-BGDvahII_dK5F-9A-81" value="" style="endArrow=none;html=1;rounded=0;entryX=0.75;entryY=0;entryDx=0;entryDy=0;exitX=0;exitY=1;exitDx=0;exitDy=0;" parent="1" source="HMs-BGDvahII_dK5F-9A-80" target="-N78YMiF-IeMwTMvXvKY-15" edge="1">
          <mxGeometry relative="1" as="geometry">
            <mxPoint x="776" y="580" as="sourcePoint" />
            <mxPoint x="710.0000000000005" y="500" as="targetPoint" />
          </mxGeometry>
        </mxCell>
        <mxCell id="HMs-BGDvahII_dK5F-9A-82" value="1" style="resizable=0;html=1;whiteSpace=wrap;align=right;verticalAlign=bottom;" parent="HMs-BGDvahII_dK5F-9A-81" connectable="0" vertex="1">
          <mxGeometry x="1" relative="1" as="geometry">
            <mxPoint x="20" y="-10" as="offset" />
          </mxGeometry>
        </mxCell>
        <mxCell id="HMs-BGDvahII_dK5F-9A-83" value="" style="endArrow=none;html=1;rounded=0;exitX=0.5;exitY=0;exitDx=0;exitDy=0;entryX=0.285;entryY=1.006;entryDx=0;entryDy=0;entryPerimeter=0;" parent="1" source="HMs-BGDvahII_dK5F-9A-80" target="-N78YMiF-IeMwTMvXvKY-42" edge="1">
          <mxGeometry relative="1" as="geometry">
            <mxPoint x="824" y="320" as="sourcePoint" />
            <mxPoint x="850.4999999999995" y="310.7199999999998" as="targetPoint" />
          </mxGeometry>
        </mxCell>
        <mxCell id="HMs-BGDvahII_dK5F-9A-84" value="m" style="resizable=0;html=1;whiteSpace=wrap;align=right;verticalAlign=bottom;" parent="HMs-BGDvahII_dK5F-9A-83" connectable="0" vertex="1">
          <mxGeometry x="1" relative="1" as="geometry">
            <mxPoint x="-10" y="9" as="offset" />
          </mxGeometry>
        </mxCell>
        <mxCell id="HMs-BGDvahII_dK5F-9A-86" value="pay" style="shape=rhombus;perimeter=rhombusPerimeter;whiteSpace=wrap;html=1;align=center;" parent="1" vertex="1">
          <mxGeometry x="650" y="680" width="100" height="60" as="geometry" />
        </mxCell>
        <mxCell id="HMs-BGDvahII_dK5F-9A-87" value="" style="endArrow=none;html=1;rounded=0;exitX=0.5;exitY=0;exitDx=0;exitDy=0;entryX=0.474;entryY=1.036;entryDx=0;entryDy=0;entryPerimeter=0;" parent="1" source="HMs-BGDvahII_dK5F-9A-86" target="-N78YMiF-IeMwTMvXvKY-18" edge="1">
          <mxGeometry relative="1" as="geometry">
            <mxPoint x="775" y="650.8" as="sourcePoint" />
            <mxPoint x="640" y="650.8" as="targetPoint" />
          </mxGeometry>
        </mxCell>
        <mxCell id="HMs-BGDvahII_dK5F-9A-88" value="1" style="resizable=0;html=1;whiteSpace=wrap;align=right;verticalAlign=bottom;" parent="HMs-BGDvahII_dK5F-9A-87" connectable="0" vertex="1">
          <mxGeometry x="1" relative="1" as="geometry">
            <mxPoint x="10" y="20" as="offset" />
          </mxGeometry>
        </mxCell>
        <mxCell id="HMs-BGDvahII_dK5F-9A-89" value="" style="endArrow=none;html=1;rounded=0;exitX=0.5;exitY=1;exitDx=0;exitDy=0;entryX=0.564;entryY=-0.021;entryDx=0;entryDy=0;entryPerimeter=0;" parent="1" source="HMs-BGDvahII_dK5F-9A-86" target="-N78YMiF-IeMwTMvXvKY-53" edge="1">
          <mxGeometry relative="1" as="geometry">
            <mxPoint x="555" y="650.8" as="sourcePoint" />
            <mxPoint x="660" y="720" as="targetPoint" />
          </mxGeometry>
        </mxCell>
        <mxCell id="HMs-BGDvahII_dK5F-9A-90" value="1" style="resizable=0;html=1;whiteSpace=wrap;align=right;verticalAlign=bottom;" parent="HMs-BGDvahII_dK5F-9A-89" connectable="0" vertex="1">
          <mxGeometry x="1" relative="1" as="geometry">
            <mxPoint x="-1" y="-9" as="offset" />
          </mxGeometry>
        </mxCell>
        <mxCell id="HMs-BGDvahII_dK5F-9A-92" value="have" style="shape=rhombus;perimeter=rhombusPerimeter;whiteSpace=wrap;html=1;align=center;" parent="1" vertex="1">
          <mxGeometry x="1340" y="650.8" width="100" height="60" as="geometry" />
        </mxCell>
        <mxCell id="HMs-BGDvahII_dK5F-9A-93" value="" style="endArrow=none;html=1;rounded=0;entryX=1.013;entryY=0.141;entryDx=0;entryDy=0;exitX=0;exitY=0.5;exitDx=0;exitDy=0;entryPerimeter=0;" parent="1" source="HMs-BGDvahII_dK5F-9A-92" target="-N78YMiF-IeMwTMvXvKY-19" edge="1">
          <mxGeometry relative="1" as="geometry">
            <mxPoint x="1262" y="410" as="sourcePoint" />
            <mxPoint x="1190" y="420" as="targetPoint" />
          </mxGeometry>
        </mxCell>
        <mxCell id="HMs-BGDvahII_dK5F-9A-94" value="1" style="resizable=0;html=1;whiteSpace=wrap;align=right;verticalAlign=bottom;" parent="HMs-BGDvahII_dK5F-9A-93" connectable="0" vertex="1">
          <mxGeometry x="1" relative="1" as="geometry">
            <mxPoint x="10" y="20" as="offset" />
          </mxGeometry>
        </mxCell>
        <mxCell id="HMs-BGDvahII_dK5F-9A-95" value="" style="endArrow=none;html=1;rounded=0;entryX=-0.019;entryY=0.647;entryDx=0;entryDy=0;exitX=1;exitY=0.5;exitDx=0;exitDy=0;entryPerimeter=0;" parent="1" source="HMs-BGDvahII_dK5F-9A-92" target="-N78YMiF-IeMwTMvXvKY-30" edge="1">
          <mxGeometry relative="1" as="geometry">
            <mxPoint x="1142" y="410" as="sourcePoint" />
            <mxPoint x="1460" y="510" as="targetPoint" />
          </mxGeometry>
        </mxCell>
        <mxCell id="HMs-BGDvahII_dK5F-9A-96" value="1" style="resizable=0;html=1;whiteSpace=wrap;align=right;verticalAlign=bottom;" parent="HMs-BGDvahII_dK5F-9A-95" connectable="0" vertex="1">
          <mxGeometry x="1" relative="1" as="geometry">
            <mxPoint x="-10" y="20" as="offset" />
          </mxGeometry>
        </mxCell>
        <mxCell id="HMs-BGDvahII_dK5F-9A-99" value="treat" style="shape=rhombus;perimeter=rhombusPerimeter;whiteSpace=wrap;html=1;align=center;" parent="1" vertex="1">
          <mxGeometry x="1119" y="510" width="100" height="60" as="geometry" />
        </mxCell>
        <mxCell id="HMs-BGDvahII_dK5F-9A-100" value="" style="endArrow=none;html=1;rounded=0;exitX=0.5;exitY=0;exitDx=0;exitDy=0;entryX=0.632;entryY=1.002;entryDx=0;entryDy=0;entryPerimeter=0;" parent="1" source="HMs-BGDvahII_dK5F-9A-99" edge="1" target="-N78YMiF-IeMwTMvXvKY-38">
          <mxGeometry relative="1" as="geometry">
            <mxPoint x="1190" y="510" as="sourcePoint" />
            <mxPoint x="1160" y="460" as="targetPoint" />
            <Array as="points" />
          </mxGeometry>
        </mxCell>
        <mxCell id="HMs-BGDvahII_dK5F-9A-101" value="1" style="resizable=0;html=1;whiteSpace=wrap;align=right;verticalAlign=bottom;" parent="HMs-BGDvahII_dK5F-9A-100" connectable="0" vertex="1">
          <mxGeometry x="1" relative="1" as="geometry">
            <mxPoint x="10" y="20" as="offset" />
          </mxGeometry>
        </mxCell>
        <mxCell id="HMs-BGDvahII_dK5F-9A-102" value="" style="endArrow=none;html=1;rounded=0;exitX=0.5;exitY=1;exitDx=0;exitDy=0;entryX=0.5;entryY=0;entryDx=0;entryDy=0;" parent="1" source="HMs-BGDvahII_dK5F-9A-99" target="-N78YMiF-IeMwTMvXvKY-14" edge="1">
          <mxGeometry relative="1" as="geometry">
            <mxPoint x="980" y="399" as="sourcePoint" />
            <mxPoint x="1140" y="400" as="targetPoint" />
          </mxGeometry>
        </mxCell>
        <mxCell id="HMs-BGDvahII_dK5F-9A-103" value="m" style="resizable=0;html=1;whiteSpace=wrap;align=right;verticalAlign=bottom;" parent="HMs-BGDvahII_dK5F-9A-102" connectable="0" vertex="1">
          <mxGeometry x="1" relative="1" as="geometry">
            <mxPoint x="-10" as="offset" />
          </mxGeometry>
        </mxCell>
        <mxCell id="HMs-BGDvahII_dK5F-9A-104" value="calculate" style="shape=rhombus;perimeter=rhombusPerimeter;whiteSpace=wrap;html=1;align=center;" parent="1" vertex="1">
          <mxGeometry x="1360" y="-90" width="100" height="60" as="geometry" />
        </mxCell>
        <mxCell id="HMs-BGDvahII_dK5F-9A-105" value="" style="endArrow=none;html=1;rounded=0;entryX=1.026;entryY=0.484;entryDx=0;entryDy=0;exitX=0;exitY=0.5;exitDx=0;exitDy=0;entryPerimeter=0;" parent="1" source="HMs-BGDvahII_dK5F-9A-104" target="-N78YMiF-IeMwTMvXvKY-28" edge="1">
          <mxGeometry relative="1" as="geometry">
            <mxPoint x="1250" y="140" as="sourcePoint" />
            <mxPoint x="1280" y="50" as="targetPoint" />
          </mxGeometry>
        </mxCell>
        <mxCell id="HMs-BGDvahII_dK5F-9A-106" value="1" style="resizable=0;html=1;whiteSpace=wrap;align=right;verticalAlign=bottom;" parent="HMs-BGDvahII_dK5F-9A-105" connectable="0" vertex="1">
          <mxGeometry x="1" relative="1" as="geometry">
            <mxPoint x="10" y="20" as="offset" />
          </mxGeometry>
        </mxCell>
        <mxCell id="HMs-BGDvahII_dK5F-9A-107" value="" style="endArrow=none;html=1;rounded=0;exitX=0.927;exitY=0.546;exitDx=0;exitDy=0;entryX=-0.018;entryY=0.326;entryDx=0;entryDy=0;exitPerimeter=0;entryPerimeter=0;" parent="1" source="HMs-BGDvahII_dK5F-9A-104" target="-N78YMiF-IeMwTMvXvKY-17" edge="1">
          <mxGeometry relative="1" as="geometry">
            <mxPoint x="1330" y="170" as="sourcePoint" />
            <mxPoint x="1470" y="50" as="targetPoint" />
          </mxGeometry>
        </mxCell>
        <mxCell id="HMs-BGDvahII_dK5F-9A-108" value="m" style="resizable=0;html=1;whiteSpace=wrap;align=right;verticalAlign=bottom;" parent="HMs-BGDvahII_dK5F-9A-107" connectable="0" vertex="1">
          <mxGeometry x="1" relative="1" as="geometry">
            <mxPoint x="-10" as="offset" />
          </mxGeometry>
        </mxCell>
        <mxCell id="HMs-BGDvahII_dK5F-9A-109" value="have" style="shape=rhombus;perimeter=rhombusPerimeter;whiteSpace=wrap;html=1;align=center;" parent="1" vertex="1">
          <mxGeometry x="1528" y="420" width="100" height="60" as="geometry" />
        </mxCell>
        <mxCell id="HMs-BGDvahII_dK5F-9A-110" value="" style="endArrow=none;html=1;rounded=0;entryX=0.692;entryY=1.006;entryDx=0;entryDy=0;entryPerimeter=0;" parent="1" source="HMs-BGDvahII_dK5F-9A-109" target="-N78YMiF-IeMwTMvXvKY-29" edge="1">
          <mxGeometry relative="1" as="geometry">
            <mxPoint x="1410" y="299.63" as="sourcePoint" />
            <mxPoint x="1580" y="320" as="targetPoint" />
          </mxGeometry>
        </mxCell>
        <mxCell id="HMs-BGDvahII_dK5F-9A-111" value="m" style="resizable=0;html=1;whiteSpace=wrap;align=right;verticalAlign=bottom;" parent="HMs-BGDvahII_dK5F-9A-110" connectable="0" vertex="1">
          <mxGeometry x="1" relative="1" as="geometry">
            <mxPoint x="10" y="20" as="offset" />
          </mxGeometry>
        </mxCell>
        <mxCell id="HMs-BGDvahII_dK5F-9A-112" value="" style="endArrow=none;html=1;rounded=0;entryX=0.5;entryY=0;entryDx=0;entryDy=0;" parent="1" source="HMs-BGDvahII_dK5F-9A-109" target="-N78YMiF-IeMwTMvXvKY-16" edge="1">
          <mxGeometry relative="1" as="geometry">
            <mxPoint x="1353" y="243" as="sourcePoint" />
            <mxPoint x="1502.9999999999995" y="487.55999999999995" as="targetPoint" />
          </mxGeometry>
        </mxCell>
        <mxCell id="HMs-BGDvahII_dK5F-9A-113" value="1" style="resizable=0;html=1;whiteSpace=wrap;align=right;verticalAlign=bottom;" parent="HMs-BGDvahII_dK5F-9A-112" connectable="0" vertex="1">
          <mxGeometry x="1" relative="1" as="geometry">
            <mxPoint x="-10" as="offset" />
          </mxGeometry>
        </mxCell>
        <mxCell id="HMs-BGDvahII_dK5F-9A-118" value="manage" style="shape=rhombus;perimeter=rhombusPerimeter;whiteSpace=wrap;html=1;align=center;" parent="1" vertex="1">
          <mxGeometry x="910" y="100" width="100" height="60" as="geometry" />
        </mxCell>
        <mxCell id="HMs-BGDvahII_dK5F-9A-119" value="" style="endArrow=none;html=1;rounded=0;exitX=1;exitY=1;exitDx=0;exitDy=0;entryX=0;entryY=0;entryDx=0;entryDy=0;" parent="1" source="HMs-BGDvahII_dK5F-9A-118" target="-N78YMiF-IeMwTMvXvKY-37" edge="1">
          <mxGeometry relative="1" as="geometry">
            <mxPoint x="1260" y="70" as="sourcePoint" />
            <mxPoint x="1110" y="130" as="targetPoint" />
          </mxGeometry>
        </mxCell>
        <mxCell id="HMs-BGDvahII_dK5F-9A-120" value="1" style="resizable=0;html=1;whiteSpace=wrap;align=right;verticalAlign=bottom;" parent="HMs-BGDvahII_dK5F-9A-119" connectable="0" vertex="1">
          <mxGeometry x="1" relative="1" as="geometry">
            <mxPoint y="-10" as="offset" />
          </mxGeometry>
        </mxCell>
        <mxCell id="HMs-BGDvahII_dK5F-9A-121" value="" style="endArrow=none;html=1;rounded=0;exitX=0.5;exitY=0;exitDx=0;exitDy=0;entryX=0.508;entryY=1.019;entryDx=0;entryDy=0;entryPerimeter=0;" parent="1" source="HMs-BGDvahII_dK5F-9A-118" target="-N78YMiF-IeMwTMvXvKY-48" edge="1">
          <mxGeometry relative="1" as="geometry">
            <mxPoint x="1111.5" y="110" as="sourcePoint" />
            <mxPoint x="920" y="90" as="targetPoint" />
          </mxGeometry>
        </mxCell>
        <mxCell id="HMs-BGDvahII_dK5F-9A-122" value="m" style="resizable=0;html=1;whiteSpace=wrap;align=right;verticalAlign=bottom;" parent="HMs-BGDvahII_dK5F-9A-121" connectable="0" vertex="1">
          <mxGeometry x="1" relative="1" as="geometry">
            <mxPoint x="20" y="10" as="offset" />
          </mxGeometry>
        </mxCell>
        <mxCell id="HMs-BGDvahII_dK5F-9A-124" value="report" style="shape=rhombus;perimeter=rhombusPerimeter;whiteSpace=wrap;html=1;align=center;" parent="1" vertex="1">
          <mxGeometry x="1200" y="110" width="100" height="60" as="geometry" />
        </mxCell>
        <mxCell id="HMs-BGDvahII_dK5F-9A-125" value="" style="endArrow=none;html=1;rounded=0;exitX=0.5;exitY=1;exitDx=0;exitDy=0;entryX=1;entryY=0;entryDx=0;entryDy=0;" parent="1" source="HMs-BGDvahII_dK5F-9A-124" target="-N78YMiF-IeMwTMvXvKY-37" edge="1">
          <mxGeometry relative="1" as="geometry">
            <mxPoint x="1330" y="100" as="sourcePoint" />
            <mxPoint x="1180" y="170" as="targetPoint" />
          </mxGeometry>
        </mxCell>
        <mxCell id="HMs-BGDvahII_dK5F-9A-126" value="1" style="resizable=0;html=1;whiteSpace=wrap;align=right;verticalAlign=bottom;" parent="HMs-BGDvahII_dK5F-9A-125" connectable="0" vertex="1">
          <mxGeometry x="1" relative="1" as="geometry">
            <mxPoint x="-10" y="-10" as="offset" />
          </mxGeometry>
        </mxCell>
        <mxCell id="HMs-BGDvahII_dK5F-9A-127" value="" style="endArrow=none;html=1;rounded=0;entryX=0.527;entryY=1.026;entryDx=0;entryDy=0;entryPerimeter=0;exitX=0.541;exitY=0.065;exitDx=0;exitDy=0;exitPerimeter=0;" parent="1" source="HMs-BGDvahII_dK5F-9A-124" target="-N78YMiF-IeMwTMvXvKY-28" edge="1">
          <mxGeometry relative="1" as="geometry">
            <mxPoint x="1251.0192525481311" y="129.8115515288788" as="sourcePoint" />
            <mxPoint x="1249" y="69.63999999999987" as="targetPoint" />
          </mxGeometry>
        </mxCell>
        <mxCell id="HMs-BGDvahII_dK5F-9A-128" value="m" style="resizable=0;html=1;whiteSpace=wrap;align=right;verticalAlign=bottom;" parent="HMs-BGDvahII_dK5F-9A-127" connectable="0" vertex="1">
          <mxGeometry x="1" relative="1" as="geometry">
            <mxPoint x="-9" y="21" as="offset" />
          </mxGeometry>
        </mxCell>
        <mxCell id="HMs-BGDvahII_dK5F-9A-129" value="" style="endArrow=none;html=1;rounded=0;exitX=0;exitY=0.5;exitDx=0;exitDy=0;entryX=1.004;entryY=0.665;entryDx=0;entryDy=0;entryPerimeter=0;" parent="1" source="HMs-BGDvahII_dK5F-9A-118" target="-N78YMiF-IeMwTMvXvKY-41" edge="1">
          <mxGeometry relative="1" as="geometry">
            <mxPoint x="940" y="185" as="sourcePoint" />
            <mxPoint x="830" y="160" as="targetPoint" />
          </mxGeometry>
        </mxCell>
        <mxCell id="HMs-BGDvahII_dK5F-9A-130" value="m" style="resizable=0;html=1;whiteSpace=wrap;align=right;verticalAlign=bottom;" parent="HMs-BGDvahII_dK5F-9A-129" connectable="0" vertex="1">
          <mxGeometry x="1" relative="1" as="geometry">
            <mxPoint x="20" y="20" as="offset" />
          </mxGeometry>
        </mxCell>
        <mxCell id="-N78YMiF-IeMwTMvXvKY-1" value="employee" style="swimlane;fontStyle=0;childLayout=stackLayout;horizontal=1;startSize=30;horizontalStack=0;resizeParent=1;resizeParentMax=0;resizeLast=0;collapsible=1;marginBottom=0;whiteSpace=wrap;html=1;" parent="1" vertex="1">
          <mxGeometry x="302.5" y="-240" width="175" height="290" as="geometry" />
        </mxCell>
        <mxCell id="-N78YMiF-IeMwTMvXvKY-9" value="&lt;u style=&quot;text-align: left; text-wrap: wrap;&quot;&gt;&lt;b&gt;&lt;font style=&quot;font-size: 15px;&quot;&gt;ID&lt;/font&gt;&lt;/b&gt;&lt;/u&gt;&lt;span style=&quot;background-color: initial;&quot;&gt;&amp;nbsp;&lt;/span&gt;&lt;div&gt;&lt;div&gt;&amp;nbsp;Name&lt;/div&gt;&lt;div&gt;&amp;nbsp;Phone :&lt;/div&gt;&lt;div&gt;&amp;nbsp;Address&lt;/div&gt;&lt;div&gt;&amp;nbsp;Gender :&lt;/div&gt;&lt;div&gt;&amp;nbsp;E _mail&lt;/div&gt;&lt;div&gt;&amp;nbsp;Birth _day&lt;/div&gt;&lt;div&gt;&amp;nbsp;SSN&amp;nbsp;&lt;/div&gt;&lt;div&gt;&amp;nbsp;Hire_date&lt;/div&gt;&lt;div&gt;&amp;nbsp;Salary&lt;/div&gt;&lt;div&gt;&amp;nbsp;Time Work&lt;div&gt;&amp;nbsp;Performance evaluation&lt;/div&gt;&lt;div&gt;&amp;nbsp;Training and Certifications&lt;/div&gt;&lt;div&gt;&amp;nbsp;Department&lt;/div&gt;&lt;div&gt;&amp;nbsp;Type&amp;nbsp;&lt;/div&gt;&lt;div&gt;Department&lt;/div&gt;&lt;div&gt;&amp;nbsp;Job title&lt;/div&gt;&lt;/div&gt;&lt;/div&gt;" style="text;html=1;align=center;verticalAlign=middle;resizable=0;points=[];autosize=1;strokeColor=none;fillColor=none;" parent="-N78YMiF-IeMwTMvXvKY-1" vertex="1">
          <mxGeometry y="30" width="175" height="260" as="geometry" />
        </mxCell>
        <mxCell id="-N78YMiF-IeMwTMvXvKY-6" value="medical equipment" style="swimlane;fontStyle=0;childLayout=stackLayout;horizontal=1;startSize=30;horizontalStack=0;resizeParent=1;resizeParentMax=0;resizeLast=0;collapsible=1;marginBottom=0;whiteSpace=wrap;html=1;" parent="1" vertex="1">
          <mxGeometry x="20" y="490" width="180" height="170" as="geometry" />
        </mxCell>
        <mxCell id="-N78YMiF-IeMwTMvXvKY-13" value="&lt;u&gt;&lt;b&gt;&lt;font style=&quot;font-size: 15px;&quot;&gt;ID &lt;/font&gt;&lt;/b&gt;&lt;/u&gt;&lt;br&gt;Device Name&lt;br&gt;Device version number &lt;br&gt;Device manufacture company &lt;br&gt;&amp;nbsp;Maintenance Records &lt;br&gt;&amp;nbsp;Usage Logs &lt;br&gt;Lifecycle Tracking &lt;br&gt;&amp;nbsp;Available" style="text;whiteSpace=wrap;html=1;align=center;" parent="-N78YMiF-IeMwTMvXvKY-6" vertex="1">
          <mxGeometry y="30" width="180" height="140" as="geometry" />
        </mxCell>
        <mxCell id="-N78YMiF-IeMwTMvXvKY-14" value="Company&#39;s Owner" style="swimlane;fontStyle=0;childLayout=stackLayout;horizontal=1;startSize=30;horizontalStack=0;resizeParent=1;resizeParentMax=0;resizeLast=0;collapsible=1;marginBottom=0;whiteSpace=wrap;html=1;" parent="1" vertex="1">
          <mxGeometry x="1080" y="630" width="178" height="250" as="geometry" />
        </mxCell>
        <mxCell id="-N78YMiF-IeMwTMvXvKY-19" value="&lt;u style=&quot;text-wrap: wrap; text-align: left;&quot;&gt;&lt;b&gt;&lt;font style=&quot;font-size: 15px;&quot;&gt;ID&lt;/font&gt;&lt;/b&gt;&lt;/u&gt;&lt;br&gt;Name&lt;br&gt;Phone :&lt;br&gt;Address&lt;br&gt;Gender :&lt;br&gt;E _mail&lt;br&gt;Birth _day&lt;br&gt;&amp;nbsp;SSN&lt;br&gt;Hire_date&lt;br&gt;Salary&lt;br&gt;Time Work&lt;br&gt;Performance evaluation&lt;br&gt;Training and Certifications&amp;nbsp;&lt;br&gt;&lt;div&gt;&amp;nbsp;Company name&amp;nbsp;&lt;/div&gt;" style="text;html=1;align=center;verticalAlign=middle;resizable=0;points=[];autosize=1;strokeColor=none;fillColor=none;" parent="-N78YMiF-IeMwTMvXvKY-14" vertex="1">
          <mxGeometry y="30" width="178" height="220" as="geometry" />
        </mxCell>
        <mxCell id="-N78YMiF-IeMwTMvXvKY-15" value="Bill" style="swimlane;fontStyle=0;childLayout=stackLayout;horizontal=1;startSize=30;horizontalStack=0;resizeParent=1;resizeParentMax=0;resizeLast=0;collapsible=1;marginBottom=0;whiteSpace=wrap;html=1;" parent="1" vertex="1">
          <mxGeometry x="550" y="490" width="180" height="160" as="geometry" />
        </mxCell>
        <mxCell id="-N78YMiF-IeMwTMvXvKY-16" value="Company" style="swimlane;fontStyle=0;childLayout=stackLayout;horizontal=1;startSize=30;horizontalStack=0;resizeParent=1;resizeParentMax=0;resizeLast=0;collapsible=1;marginBottom=0;whiteSpace=wrap;html=1;" parent="1" vertex="1">
          <mxGeometry x="1500" y="590.8" width="175" height="120" as="geometry" />
        </mxCell>
        <mxCell id="-N78YMiF-IeMwTMvXvKY-30" value="&lt;u style=&quot;text-wrap: wrap; text-align: left;&quot;&gt;&lt;b&gt;&lt;font style=&quot;font-size: 15px;&quot;&gt;ID&lt;/font&gt;&lt;/b&gt;&lt;/u&gt;&lt;br&gt;Name&lt;br&gt;Address&lt;br&gt;&amp;nbsp;E-mail &lt;br&gt;Indebtedness" style="text;html=1;align=center;verticalAlign=middle;resizable=0;points=[];autosize=1;strokeColor=none;fillColor=none;" parent="-N78YMiF-IeMwTMvXvKY-16" vertex="1">
          <mxGeometry y="30" width="175" height="90" as="geometry" />
        </mxCell>
        <mxCell id="-N78YMiF-IeMwTMvXvKY-25" value="Accountant" style="swimlane;fontStyle=0;childLayout=stackLayout;horizontal=1;startSize=30;horizontalStack=0;resizeParent=1;resizeParentMax=0;resizeLast=0;collapsible=1;marginBottom=0;whiteSpace=wrap;html=1;" parent="1" vertex="1">
          <mxGeometry x="1150" y="-160" width="178" height="230" as="geometry" />
        </mxCell>
        <mxCell id="-N78YMiF-IeMwTMvXvKY-28" value="&lt;u style=&quot;text-wrap: wrap; text-align: left;&quot;&gt;&lt;b&gt;&lt;font style=&quot;font-size: 15px;&quot;&gt;ID&lt;/font&gt;&lt;/b&gt;&lt;/u&gt;&lt;br&gt;Name&lt;br&gt;Phone&amp;nbsp;&lt;br&gt;Address&lt;br&gt;Gender&amp;nbsp;&lt;br&gt;E _mail&lt;br&gt;Birth _day&lt;br&gt;&amp;nbsp;SSN&lt;br&gt;Hire_date&lt;br&gt;Salary&lt;br&gt;Time Work&lt;br&gt;Performance evaluation&lt;br&gt;Training and Certifications&amp;nbsp;" style="text;html=1;align=center;verticalAlign=middle;resizable=0;points=[];autosize=1;strokeColor=none;fillColor=none;" parent="-N78YMiF-IeMwTMvXvKY-25" vertex="1">
          <mxGeometry y="30" width="178" height="200" as="geometry" />
        </mxCell>
        <mxCell id="-N78YMiF-IeMwTMvXvKY-26" value="Tax" style="swimlane;fontStyle=0;childLayout=stackLayout;horizontal=1;startSize=30;horizontalStack=0;resizeParent=1;resizeParentMax=0;resizeLast=0;collapsible=1;marginBottom=0;whiteSpace=wrap;html=1;" parent="1" vertex="1">
          <mxGeometry x="1510" y="-105" width="175" height="90" as="geometry" />
        </mxCell>
        <mxCell id="-N78YMiF-IeMwTMvXvKY-17" value="&lt;u style=&quot;text-wrap: wrap; text-align: left;&quot;&gt;&lt;b&gt;&lt;font style=&quot;font-size: 15px;&quot;&gt;ID&lt;/font&gt;&lt;/b&gt;&lt;/u&gt;&lt;br&gt;Revenues&lt;br&gt;&amp;nbsp;Expenses&amp;nbsp;" style="text;html=1;align=center;verticalAlign=middle;resizable=0;points=[];autosize=1;strokeColor=none;fillColor=none;" parent="-N78YMiF-IeMwTMvXvKY-26" vertex="1">
          <mxGeometry y="30" width="175" height="60" as="geometry" />
        </mxCell>
        <mxCell id="-N78YMiF-IeMwTMvXvKY-27" value="PHarmacist" style="swimlane;fontStyle=0;childLayout=stackLayout;horizontal=1;startSize=30;horizontalStack=0;resizeParent=1;resizeParentMax=0;resizeLast=0;collapsible=1;marginBottom=0;whiteSpace=wrap;html=1;" parent="1" vertex="1">
          <mxGeometry x="70" y="-160" width="175" height="260" as="geometry" />
        </mxCell>
        <mxCell id="-N78YMiF-IeMwTMvXvKY-40" value="&lt;u style=&quot;text-wrap: wrap; text-align: left;&quot;&gt;&lt;b&gt;&lt;font style=&quot;font-size: 15px;&quot;&gt;ID&lt;/font&gt;&lt;/b&gt;&lt;/u&gt;&lt;br&gt;Name&lt;br&gt;Phone :&lt;br&gt;Address&lt;br&gt;Gender :&lt;br&gt;E _mail&lt;br&gt;Birth _day&lt;br&gt;&amp;nbsp;SSN&lt;br&gt;Hire_date&lt;br&gt;Salary&lt;br&gt;Time Work&lt;br&gt;Performance evaluation&lt;br&gt;Training and Certifications&amp;nbsp;&lt;br&gt;Department&lt;br&gt;&amp;nbsp;License Number" style="text;html=1;align=center;verticalAlign=middle;resizable=0;points=[];autosize=1;strokeColor=none;fillColor=none;" parent="-N78YMiF-IeMwTMvXvKY-27" vertex="1">
          <mxGeometry y="30" width="175" height="230" as="geometry" />
        </mxCell>
        <mxCell id="-N78YMiF-IeMwTMvXvKY-33" value="HR Department" style="swimlane;fontStyle=0;childLayout=stackLayout;horizontal=1;startSize=30;horizontalStack=0;resizeParent=1;resizeParentMax=0;resizeLast=0;collapsible=1;marginBottom=0;whiteSpace=wrap;html=1;" parent="1" vertex="1">
          <mxGeometry x="710" y="-160" width="178" height="230" as="geometry" />
        </mxCell>
        <mxCell id="-N78YMiF-IeMwTMvXvKY-41" value="&lt;u style=&quot;text-wrap: wrap; text-align: left;&quot;&gt;&lt;b&gt;&lt;font style=&quot;font-size: 15px;&quot;&gt;ID&lt;/font&gt;&lt;/b&gt;&lt;/u&gt;&lt;br&gt;Name&lt;br&gt;Phone&amp;nbsp;&lt;br&gt;Address&lt;br&gt;Gender&amp;nbsp;&lt;br&gt;E _mail&lt;br&gt;Birth _day&lt;br&gt;&amp;nbsp;SSN&lt;br&gt;Hire_date&lt;br&gt;Salary&lt;br&gt;Time Work&lt;br&gt;Performance evaluation&lt;br&gt;Training and Certifications&amp;nbsp;" style="text;html=1;align=center;verticalAlign=middle;resizable=0;points=[];autosize=1;strokeColor=none;fillColor=none;" parent="-N78YMiF-IeMwTMvXvKY-33" vertex="1">
          <mxGeometry y="30" width="178" height="200" as="geometry" />
        </mxCell>
        <mxCell id="-N78YMiF-IeMwTMvXvKY-34" value="Order" style="swimlane;fontStyle=0;childLayout=stackLayout;horizontal=1;startSize=30;horizontalStack=0;resizeParent=1;resizeParentMax=0;resizeLast=0;collapsible=1;marginBottom=0;whiteSpace=wrap;html=1;" parent="1" vertex="1">
          <mxGeometry x="820" y="180" width="175" height="100" as="geometry" />
        </mxCell>
        <mxCell id="-N78YMiF-IeMwTMvXvKY-42" value="&amp;nbsp;&lt;u style=&quot;text-wrap: wrap; text-align: left;&quot;&gt;&lt;b&gt;&lt;font style=&quot;font-size: 15px;&quot;&gt;ID&lt;/font&gt;&lt;/b&gt;&lt;/u&gt;&lt;br&gt;Total price&lt;br&gt;&amp;nbsp;Quantity&lt;br&gt;&amp;nbsp;Data&amp;nbsp;" style="text;html=1;align=center;verticalAlign=middle;resizable=0;points=[];autosize=1;strokeColor=none;fillColor=none;" parent="-N78YMiF-IeMwTMvXvKY-34" vertex="1">
          <mxGeometry y="30" width="175" height="70" as="geometry" />
        </mxCell>
        <mxCell id="-N78YMiF-IeMwTMvXvKY-35" value="Drug" style="swimlane;fontStyle=0;childLayout=stackLayout;horizontal=1;startSize=30;horizontalStack=0;resizeParent=1;resizeParentMax=0;resizeLast=0;collapsible=1;marginBottom=0;whiteSpace=wrap;html=1;" parent="1" vertex="1">
          <mxGeometry x="265" y="490" width="175" height="190" as="geometry" />
        </mxCell>
        <mxCell id="-N78YMiF-IeMwTMvXvKY-39" value="&lt;u style=&quot;text-wrap: wrap; text-align: left;&quot;&gt;&lt;b&gt;&lt;font style=&quot;font-size: 15px;&quot;&gt;ID&lt;/font&gt;&lt;/b&gt;&lt;/u&gt;&lt;br&gt;&amp;nbsp;Drug_Name &lt;br&gt;&amp;nbsp;Company_ID &lt;br&gt;&amp;nbsp;Type &lt;br&gt;Mfg_Date &lt;br&gt;&amp;nbsp;Exp_Date &lt;br&gt;&amp;nbsp;Quantity &lt;br&gt;&amp;nbsp;Price&lt;br&gt;Side effect &lt;br&gt;&amp;nbsp;Drug information" style="text;html=1;align=center;verticalAlign=middle;resizable=0;points=[];autosize=1;strokeColor=none;fillColor=none;" parent="-N78YMiF-IeMwTMvXvKY-35" vertex="1">
          <mxGeometry y="30" width="175" height="160" as="geometry" />
        </mxCell>
        <mxCell id="-N78YMiF-IeMwTMvXvKY-36" value="Digital marketer" style="swimlane;fontStyle=0;childLayout=stackLayout;horizontal=1;startSize=30;horizontalStack=0;resizeParent=1;resizeParentMax=0;resizeLast=0;collapsible=1;marginBottom=0;whiteSpace=wrap;html=1;" parent="1" vertex="1">
          <mxGeometry x="1450" y="90" width="178" height="230" as="geometry" />
        </mxCell>
        <mxCell id="-N78YMiF-IeMwTMvXvKY-37" value="Manager" style="swimlane;fontStyle=0;childLayout=stackLayout;horizontal=1;startSize=30;horizontalStack=0;resizeParent=1;resizeParentMax=0;resizeLast=0;collapsible=1;marginBottom=0;whiteSpace=wrap;html=1;" parent="1" vertex="1">
          <mxGeometry x="1060" y="210" width="175" height="260" as="geometry" />
        </mxCell>
        <mxCell id="-N78YMiF-IeMwTMvXvKY-38" value="&lt;u style=&quot;text-wrap: wrap; text-align: left;&quot;&gt;&lt;b&gt;&lt;font style=&quot;font-size: 15px;&quot;&gt;ID&lt;/font&gt;&lt;/b&gt;&lt;/u&gt;&lt;br&gt;Name&lt;br&gt;Phone&lt;br&gt;Address&lt;br&gt;Gender&amp;nbsp;&lt;br&gt;E _mail&lt;br&gt;Birth _day&lt;br&gt;&amp;nbsp;SSN&lt;br&gt;Hire_date&lt;br&gt;Salary&lt;br&gt;Time Work&lt;br&gt;Performance evaluation&lt;br&gt;Training and Certifications&amp;nbsp;&lt;br&gt;&amp;nbsp;Department&lt;br&gt;&amp;nbsp;Type" style="text;html=1;align=center;verticalAlign=middle;resizable=0;points=[];autosize=1;strokeColor=none;fillColor=none;" parent="-N78YMiF-IeMwTMvXvKY-37" vertex="1">
          <mxGeometry y="30" width="175" height="230" as="geometry" />
        </mxCell>
        <mxCell id="-N78YMiF-IeMwTMvXvKY-47" value="System Administrator" style="swimlane;fontStyle=0;childLayout=stackLayout;horizontal=1;startSize=30;horizontalStack=0;resizeParent=1;resizeParentMax=0;resizeLast=0;collapsible=1;marginBottom=0;whiteSpace=wrap;html=1;" parent="1" vertex="1">
          <mxGeometry x="920" y="-160" width="178" height="230" as="geometry" />
        </mxCell>
        <mxCell id="-N78YMiF-IeMwTMvXvKY-48" value="&lt;u style=&quot;text-wrap: wrap; text-align: left;&quot;&gt;&lt;b&gt;&lt;font style=&quot;font-size: 15px;&quot;&gt;ID&lt;/font&gt;&lt;/b&gt;&lt;/u&gt;&lt;br&gt;Name&lt;br&gt;Phone&amp;nbsp;&lt;br&gt;Address&lt;br&gt;Gender&amp;nbsp;&lt;br&gt;E _mail&lt;br&gt;Birth _day&lt;br&gt;&amp;nbsp;SSN&lt;br&gt;Hire_date&lt;br&gt;Salary&lt;br&gt;Time Work&lt;br&gt;Performance evaluation&lt;br&gt;Training and Certifications&amp;nbsp;" style="text;html=1;align=center;verticalAlign=middle;resizable=0;points=[];autosize=1;strokeColor=none;fillColor=none;" parent="-N78YMiF-IeMwTMvXvKY-47" vertex="1">
          <mxGeometry y="30" width="178" height="200" as="geometry" />
        </mxCell>
        <mxCell id="-N78YMiF-IeMwTMvXvKY-49" value="Client" style="swimlane;fontStyle=0;childLayout=stackLayout;horizontal=1;startSize=30;horizontalStack=0;resizeParent=1;resizeParentMax=0;resizeLast=0;collapsible=1;marginBottom=0;whiteSpace=wrap;html=1;" parent="1" vertex="1">
          <mxGeometry x="490" y="70" width="178" height="230" as="geometry" />
        </mxCell>
        <mxCell id="-N78YMiF-IeMwTMvXvKY-50" value="&lt;u style=&quot;text-wrap: wrap; text-align: left;&quot;&gt;&lt;b&gt;&lt;font style=&quot;font-size: 15px;&quot;&gt;ID&lt;/font&gt;&lt;/b&gt;&lt;/u&gt;&lt;br&gt;Name&lt;br&gt;Phone :&lt;br&gt;Address&lt;br&gt;Gender :&lt;br&gt;E _mail&lt;br&gt;Birth _day&lt;br&gt;&amp;nbsp;SSN&lt;br&gt;Hire_date&lt;br&gt;Salary&lt;br&gt;Time Work&lt;br&gt;Performance evaluation&lt;br&gt;Training and Certifications&amp;nbsp;" style="text;html=1;align=center;verticalAlign=middle;resizable=0;points=[];autosize=1;strokeColor=none;fillColor=none;" parent="-N78YMiF-IeMwTMvXvKY-49" vertex="1">
          <mxGeometry y="30" width="178" height="200" as="geometry" />
        </mxCell>
        <mxCell id="-N78YMiF-IeMwTMvXvKY-51" value="items" style="swimlane;fontStyle=0;childLayout=stackLayout;horizontal=1;startSize=30;horizontalStack=0;resizeParent=1;resizeParentMax=0;resizeLast=0;collapsible=1;marginBottom=0;whiteSpace=wrap;html=1;" parent="1" vertex="1">
          <mxGeometry x="840" y="530" width="180" height="100" as="geometry" />
        </mxCell>
        <mxCell id="-N78YMiF-IeMwTMvXvKY-52" value="&lt;u style=&quot;text-wrap: wrap; text-align: left;&quot;&gt;&lt;b&gt;&lt;font style=&quot;font-size: 15px;&quot;&gt;ID&lt;/font&gt;&lt;/b&gt;&lt;/u&gt;&lt;br&gt;&amp;nbsp;Name&lt;br&gt;Quantity&lt;br&gt;&amp;nbsp;Quantit" style="text;html=1;align=center;verticalAlign=middle;resizable=0;points=[];autosize=1;strokeColor=none;fillColor=none;" parent="-N78YMiF-IeMwTMvXvKY-51" vertex="1">
          <mxGeometry y="30" width="180" height="70" as="geometry" />
        </mxCell>
        <mxCell id="-N78YMiF-IeMwTMvXvKY-53" value="Payment" style="swimlane;fontStyle=0;childLayout=stackLayout;horizontal=1;startSize=30;horizontalStack=0;resizeParent=1;resizeParentMax=0;resizeLast=0;collapsible=1;marginBottom=0;whiteSpace=wrap;html=1;" parent="1" vertex="1">
          <mxGeometry x="550" y="770" width="180" height="80" as="geometry" />
        </mxCell>
        <mxCell id="-N78YMiF-IeMwTMvXvKY-55" value="Cash" style="swimlane;fontStyle=0;childLayout=stackLayout;horizontal=1;startSize=30;horizontalStack=0;resizeParent=1;resizeParentMax=0;resizeLast=0;collapsible=1;marginBottom=0;whiteSpace=wrap;html=1;" parent="1" vertex="1">
          <mxGeometry x="730" y="1020" width="180" height="80" as="geometry" />
        </mxCell>
        <mxCell id="-N78YMiF-IeMwTMvXvKY-56" value="&amp;nbsp;&lt;u style=&quot;text-wrap: wrap; text-align: left;&quot;&gt;&lt;b&gt;&lt;font style=&quot;font-size: 15px;&quot;&gt;ID&lt;/font&gt;&lt;/b&gt;&lt;/u&gt;&lt;br&gt;cashTendered" style="text;html=1;align=center;verticalAlign=middle;resizable=0;points=[];autosize=1;strokeColor=none;fillColor=none;" parent="-N78YMiF-IeMwTMvXvKY-55" vertex="1">
          <mxGeometry y="30" width="180" height="50" as="geometry" />
        </mxCell>
        <mxCell id="-N78YMiF-IeMwTMvXvKY-57" value="Credit" style="swimlane;fontStyle=0;childLayout=stackLayout;horizontal=1;startSize=30;horizontalStack=0;resizeParent=1;resizeParentMax=0;resizeLast=0;collapsible=1;marginBottom=0;whiteSpace=wrap;html=1;" parent="1" vertex="1">
          <mxGeometry x="470" y="1010" width="180" height="100" as="geometry" />
        </mxCell>
        <mxCell id="-N78YMiF-IeMwTMvXvKY-58" value="&amp;nbsp;&lt;u style=&quot;text-wrap: wrap; text-align: left;&quot;&gt;&lt;b&gt;&lt;font style=&quot;font-size: 15px;&quot;&gt;ID&lt;/font&gt;&lt;/b&gt;&lt;/u&gt;&lt;br&gt;number&lt;br&gt;type&lt;br&gt;expireDate" style="text;html=1;align=center;verticalAlign=middle;resizable=0;points=[];autosize=1;strokeColor=none;fillColor=none;" parent="-N78YMiF-IeMwTMvXvKY-57" vertex="1">
          <mxGeometry y="30" width="180" height="70" as="geometry" />
        </mxCell>
        <mxCell id="-N78YMiF-IeMwTMvXvKY-18" value="&lt;div style=&quot;font-size: 14px;&quot;&gt;&lt;u&gt;id&lt;/u&gt;&lt;/div&gt;&lt;div style=&quot;font-size: 14px;&quot;&gt;&amp;nbsp;Patient Information&lt;/div&gt;&lt;div&gt;&amp;nbsp; Prescription Details&lt;/div&gt;&lt;div&gt;&amp;nbsp; Medication Details&lt;/div&gt;&lt;div&gt;&amp;nbsp; Date and Time&amp;nbsp;&lt;/div&gt;&lt;div&gt;&amp;nbsp; Price and Cost Information&lt;/div&gt;&lt;div&gt;&amp;nbsp; Pharmacy Details&lt;/div&gt;&lt;div&gt;&amp;nbsp; Notes or Comments&amp;nbsp;&lt;/div&gt;" style="text;html=1;align=center;verticalAlign=middle;resizable=0;points=[];autosize=1;strokeColor=none;fillColor=none;" parent="1" vertex="1">
          <mxGeometry x="550" y="520" width="180" height="130" as="geometry" />
        </mxCell>
        <mxCell id="-N78YMiF-IeMwTMvXvKY-54" value="&lt;u style=&quot;text-wrap: wrap; text-align: left;&quot;&gt;&lt;b&gt;&lt;font style=&quot;font-size: 15px;&quot;&gt;ID&lt;/font&gt;&lt;/b&gt;&lt;/u&gt;&lt;br&gt;Amount&amp;nbsp;" style="text;html=1;align=center;verticalAlign=middle;resizable=0;points=[];autosize=1;strokeColor=none;fillColor=none;" parent="1" vertex="1">
          <mxGeometry x="550" y="800" width="180" height="50" as="geometry" />
        </mxCell>
        <mxCell id="-N78YMiF-IeMwTMvXvKY-29" value="&lt;u style=&quot;text-wrap: wrap; text-align: left;&quot;&gt;&lt;b&gt;&lt;font style=&quot;font-size: 15px;&quot;&gt;ID&lt;/font&gt;&lt;/b&gt;&lt;/u&gt;&lt;br&gt;Name&lt;br&gt;Phone&amp;nbsp;&lt;br&gt;Address&lt;br&gt;Gender&amp;nbsp;&lt;br&gt;E _mail&lt;br&gt;Birth _day&lt;br&gt;&amp;nbsp;SSN&lt;br&gt;Hire_date&lt;br&gt;Salary&lt;br&gt;Time Work&lt;br&gt;Performance evaluation&lt;br&gt;Training and Certifications&amp;nbsp;" style="text;html=1;align=center;verticalAlign=middle;resizable=0;points=[];autosize=1;strokeColor=none;fillColor=none;" parent="1" vertex="1">
          <mxGeometry x="1450" y="120" width="178" height="200" as="geometry" />
        </mxCell>
      </root>
    </mxGraphModel>
  </diagram>
</mxfile>
